<?xml version="1.0" standalone="no"?>
<!DOCTYPE svg PUBLIC "-//W3C//DTD SVG 20010904//EN"
 "http://www.w3.org/TR/2001/REC-SVG-20010904/DTD/svg10.dtd">
<svg version="1.0" xmlns="http://www.w3.org/2000/svg"
 width="900.000000pt" height="900.000000pt" viewBox="0 0 900.000000 900.000000"
 preserveAspectRatio="xMidYMid meet">
<metadata>
Created by potrace 1.14, written by Peter Selinger 2001-2017
</metadata>
<g transform="translate(0.000000,900.000000) scale(0.100000,-0.100000)"
fill="#000000" stroke="none">
<path d="M5800 8249 c-684 -46 -1314 -411 -1708 -990 l-31 -46 28 -39 c110
-150 181 -369 181 -559 0 -349 -193 -682 -494 -850 l-65 -36 62 -77 c34 -43
68 -90 76 -105 8 -15 20 -27 26 -27 7 0 17 -12 23 -26 l12 -25 30 21 c180 128
463 105 602 -49 40 -44 104 -169 173 -333 8 -21 22 -38 29 -38 8 0 17 -9 21
-20 4 -12 21 -24 48 -31 175 -46 346 -229 373 -398 5 -31 11 -41 25 -41 12 0
21 -10 25 -25 l6 -25 347 0 c368 0 412 -4 503 -51 100 -51 183 -165 209 -287
15 -76 6 -203 -20 -272 -23 -61 -20 -72 44 -136 l33 -32 108 23 c897 191 1582
907 1746 1824 32 182 33 548 1 731 -84 480 -307 907 -653 1250 -343 340 -762
560 -1218 640 -92 16 -398 44 -422 38 -3 0 -57 -4 -120 -9z m311 -891 c20 -11
47 -39 60 -62 l24 -41 3 -580 3 -581 185 -229 c267 -330 272 -337 273 -421 2
-93 -51 -179 -135 -220 -48 -23 -63 -26 -124 -22 -109 8 -84 -16 -424 407
-104 129 -195 250 -204 270 -14 32 -16 111 -16 671 0 492 3 644 13 674 16 45
72 111 115 133 69 36 162 36 227 1z"/>
<path d="M3183 7250 c-207 -38 -400 -193 -482 -388 -73 -173 -65 -366 21 -541
35 -71 59 -103 142 -187 86 -86 114 -107 187 -143 194 -93 387 -94 574 -2 338
167 461 567 278 901 -45 81 -196 234 -275 279 -129 73 -308 105 -445 81z"/>
<path d="M2405 5809 c-135 -19 -269 -118 -328 -242 -24 -52 -67 -242 -162
-722 -19 -93 -72 -359 -120 -590 -194 -949 -197 -967 -191 -1022 9 -74 40
-153 81 -200 19 -23 35 -44 35 -47 0 -11 -129 -6 -136 5 -4 7 -17 95 -30 198
-55 431 -82 649 -229 1806 -59 469 -61 478 -78 511 -23 44 -127 141 -169 159
-127 52 -284 -25 -324 -161 -16 -56 -20 -11 46 -529 17 -132 57 -454 90 -715
197 -1558 200 -1582 225 -1630 13 -25 45 -66 73 -92 90 -84 75 -82 520 -86
l392 -3 -2 -377 -3 -376 -265 -218 c-146 -119 -279 -233 -297 -252 -50 -55
-66 -144 -41 -229 18 -58 114 -159 180 -187 61 -26 142 -24 199 5 26 14 383
299 491 393 19 16 2 28 406 -302 126 -102 166 -120 248 -113 133 10 224 108
224 240 0 69 -34 139 -96 199 -42 39 -208 177 -452 373 l-62 50 -2 75 c-4 217
-3 701 2 710 4 7 121 9 334 8 l328 -3 189 -530 c104 -291 214 -602 245 -690
71 -201 92 -240 170 -315 90 -86 156 -115 264 -115 70 1 95 5 142 27 148 69
237 244 199 395 -7 26 -70 210 -141 408 -70 198 -199 558 -285 800 -307 864
-287 816 -379 903 -64 61 -106 81 -306 147 -80 26 -149 51 -153 55 -5 4 3 47
17 96 14 48 26 92 26 96 0 5 -11 13 -25 18 -16 6 -23 14 -19 25 4 10 0 15 -12
15 -11 0 -46 13 -79 28 -64 31 -125 90 -149 144 -69 162 -430 1008 -437 1026
-5 12 -7 22 -5 22 2 0 148 -184 324 -408 176 -224 343 -429 372 -456 73 -69
128 -91 220 -90 74 1 446 29 527 40 42 5 42 5 49 -31 4 -22 24 -55 51 -86 83
-91 1 -84 928 -87 547 -2 836 1 870 8 88 18 141 87 133 172 -6 54 -36 99 -102
152 l-38 31 -509 3 c-280 1 -509 4 -509 5 0 1 11 24 25 51 19 38 25 65 25 116
0 96 -22 151 -92 226 -75 79 -141 114 -229 118 l-64 3 -88 199 c-95 214 -117
249 -181 296 -37 27 -47 29 -101 26 -72 -4 -106 -26 -135 -84 -32 -65 -26 -95
59 -284 43 -96 76 -178 72 -181 -6 -6 -319 -33 -511 -45 l-95 -5 -272 348
c-149 191 -270 349 -269 351 2 2 137 -92 300 -208 163 -116 302 -213 309 -216
30 -11 54 142 37 236 -17 93 -55 165 -132 245 -106 112 -125 120 -573 248
-220 63 -420 117 -445 119 -25 3 -72 1 -105 -3z"/>
<path d="M4140 3731 c-144 -45 -218 -200 -159 -331 27 -60 103 -137 164 -166
l50 -24 693 0 692 0 -2 -937 -3 -938 -320 -5 c-350 -5 -349 -5 -412 -69 -68
-67 -88 -162 -54 -253 17 -43 37 -71 86 -116 35 -33 81 -66 102 -73 30 -11
136 -14 493 -14 396 0 460 2 490 16 56 26 101 70 126 124 l24 50 0 1255 c0
1240 -1 1256 -21 1300 -24 54 -99 134 -154 163 l-40 22 -865 2 c-476 1 -876
-2 -890 -6z"/>
</g>
</svg>
